<?xml version="1.0" standalone="no"?><!DOCTYPE svg PUBLIC "-//W3C//DTD SVG 1.1//EN" "http://www.w3.org/Graphics/SVG/1.1/DTD/svg11.dtd"><svg t="1512091896793" class="icon" style="" viewBox="0 0 1024 1024" version="1.1" xmlns="http://www.w3.org/2000/svg" p-id="3214" xmlns:xlink="http://www.w3.org/1999/xlink" width="200" height="200"><defs><style type="text/css"></style></defs><path d="M740.02432 147.31264c31.17056-3.23584 58.34752-0.65536 81.57184 7.7824 23.20384 8.43776 42.5984 20.29568 58.20416 35.5328a136.04864 136.04864 0 0 1 33.87392 53.0432c6.88128 19.18976 9.33888 39.66976 7.168 59.904a133.89824 133.89824 0 0 1-20.0704 56.46336c-11.10016 17.83808-27.17696 31.96928-48.14848 42.33216a1292.0832 1292.0832 0 0 1-82.08384 38.46144 768.98304 768.98304 0 0 1-76.8 28.24192c-24.49408 7.4752-47.24736 12.4928-68.1984 15.09376-21.01248 2.60096-39.77216 1.9456-56.32-1.9456a1502.63808 1502.63808 0 0 0-20.992 128.02048 1163.01824 1163.01824 0 0 0-8.6016 142.6432c0 22.69184 0.49152 45.42464 1.4336 68.13696 0.96256 22.7328 2.08896 43.49952 3.35872 62.30016 1.24928 21.42208 2.8672 42.1888 4.75136 62.32064h-139.30496c0.65536-12.32896 1.59744-28.5696 2.8672-48.68096 0.63488-16.87552 1.26976-38.912 1.92512-66.19136 0.6144-27.27936 0.94208-60.70272 0.94208-100.29056 0-50.62656 3.1744-98.97984 9.54368-145.05984A1534.81216 1534.81216 0 0 1 447.0784 460.8c-24.82176 5.8368-51.22048 5.5296-79.19616-0.96256-27.99616-6.49216-55.99232-17.38752-83.968-32.62464a468.5824 468.5824 0 0 1-81.1008-56.46336 512.88064 512.88064 0 0 1-69.67296-72.51968c-13.35296-16.87552-22.24128-33.75104-26.70592-50.62656a114.64704 114.64704 0 0 1-2.39616-49.64352c2.84672-16.19968 8.68352-31.72352 17.2032-45.79328 8.45824-14.09024 18.5344-27.15648 30.02368-38.912a104.09984 104.09984 0 0 1 36.27008-22.40512 145.77664 145.77664 0 0 1 45.32224-8.76544c16.22016-0.65536 32.768 0.65536 49.60256 3.8912 16.87552 3.2768 33.23904 8.43776 49.152 15.5648 15.91296 7.80288 32.93184 18.35008 51.05664 31.66208 18.69824 13.80352 36.2496 29.10208 52.46976 45.75232a507.4944 507.4944 0 0 1 46.75584 55.00928c13.63968 18.37056 25.6 37.90848 35.77856 58.40896a240.37376 240.37376 0 0 1 40.07936-52.08064 335.13472 335.13472 0 0 1 54.86592-44.29824c19.8656-12.9024 40.96-23.81824 62.976-32.60416 21.9136-8.78592 43.4176-14.1312 64.4096-16.0768z" fill="#A4DF5C" p-id="3215"></path></svg>