<?xml version="1.0" standalone="no"?><!DOCTYPE svg PUBLIC "-//W3C//DTD SVG 1.1//EN" "http://www.w3.org/Graphics/SVG/1.1/DTD/svg11.dtd"><svg t="1512029638183" class="icon" style="" viewBox="0 0 1024 1024" version="1.1" xmlns="http://www.w3.org/2000/svg" p-id="1864" xmlns:xlink="http://www.w3.org/1999/xlink" width="200" height="200"><defs><style type="text/css"></style></defs><path d="M778 421.7l-234.3 89.6 234.2 89.6c59.6 23 94.1 41.4 103.3 55.2 9.1 13.8 13.8 27.6 13.8 41.4 0 36.8-7 57.5-20.9 62-13.9 4.6-27.8 6.9-41.7 6.9-14 0-27.9-3.4-41.8-10.3-14-6.9-30.1-17.2-48.7-31L526.6 531.9l48.7 289.3c4.6 13.8 6.9 26.5 6.9 37.9v24.1c0 27.6-6.9 47.1-20.8 58.5-14 11.5-30.1 17.2-48.7 17.2-14.2 0-29.5-4.6-46.1-13.8-16.6-9.1-24.8-29.8-24.8-62 0-9.1 1.2-18.4 3.5-27.6 2.4-9.1 3.5-20.7 3.5-34.5l56.6-289.3L286 724.8c-14.2 9.2-29.5 18.4-46.1 27.6-16.6 9.2-31.8 13.8-45.9 13.8-14.2 0-28.3-4.6-42.5-13.8-14.2-9.1-21.2-27.6-21.2-55.2 0-18.4 6.9-34.5 20.7-48.3 13.8-13.8 45.9-29.8 96.4-48.3l234.4-89.5-234.3-89.6c-32.1-13.8-59.7-26.4-82.7-37.9s-34.5-31-34.5-58.5c0-22.9 6.9-40.2 20.8-51.7 14-11.4 27.7-17.2 41.8-17.2 13.9 0 28.9 3.4 45.2 10.3 16.1 6.9 31.2 17.2 45.2 31l215.5 192.9-48.7-289.3c0-13.8-1.2-25.2-3.5-34.5-2.4-9.1-3.4-18.4-3.4-27.6 0-18.4 6.9-35.5 20.8-51.7 13.9-16 30.2-24.1 48.7-24.1 28.4 0 47.1 9.2 56.7 27.6 9.4 18.4 14.2 34.5 14.2 48.3v31c0 11.5-2.4 21.8-7.1 31l-56.6 289.3 219.4-192.9c18.8-18.4 35.3-29.8 49.5-34.5 14.2-4.6 28.3-6.9 42.5-6.9 18.8 0 34.2 6.9 45.9 20.7 11.8 13.8 17.9 29.9 17.9 48.3s-4.6 33.4-13.8 44.8c-9.3 11.6-43.7 28.8-103.3 51.8z" fill="#FF0000" p-id="1865"></path></svg>