<?xml version="1.0" standalone="no"?><!DOCTYPE svg PUBLIC "-//W3C//DTD SVG 1.1//EN" "http://www.w3.org/Graphics/SVG/1.1/DTD/svg11.dtd"><svg t="1512035878712" class="icon" style="" viewBox="0 0 1024 1024" version="1.1" xmlns="http://www.w3.org/2000/svg" p-id="3320" xmlns:xlink="http://www.w3.org/1999/xlink" width="200" height="200"><defs><style type="text/css"></style></defs><path d="M972.83904 1024h-921.588481c-28.262047 0-51.19936-22.937313-51.19936-51.19936V51.21216C0.051199 22.950113 22.988513 0.0128 51.250559 0.0128h460.79424c28.262047 0 51.19936 22.937313 51.19936 51.19936s-22.937313 51.19936-51.19936 51.19936h-409.59488v819.18976h819.189761v-409.59488c0-28.262047 22.937313-51.19936 51.19936-51.19936s51.19936 22.937313 51.19936 51.19936v460.79424c0 28.262047-22.937313 51.19936-51.19936 51.19936z" p-id="3321" fill="#8a8a8a"></path><path d="M512.044799 563.20576c-13.107036 0-26.214072-5.017537-36.197947-15.001413-20.01895-19.96775-20.01895-52.428145 0-72.395895l460.79424-460.79424c20.01895-20.01895 52.376945-20.01895 72.395895 0 20.01895 19.96775 20.01895 52.428145 0 72.395895l-460.79424 460.79424c-9.983875 9.983875-23.090911 15.001412-36.197948 15.001413z" p-id="3322" fill="#8a8a8a"></path></svg>