<?xml version="1.0" standalone="no"?><!DOCTYPE svg PUBLIC "-//W3C//DTD SVG 1.1//EN" "http://www.w3.org/Graphics/SVG/1.1/DTD/svg11.dtd"><svg t="1512352278410" class="icon" style="" viewBox="0 0 1423 1024" version="1.1" xmlns="http://www.w3.org/2000/svg" p-id="1863" xmlns:xlink="http://www.w3.org/1999/xlink" width="277.9296875" height="200"><defs><style type="text/css"></style></defs><path d="M285.95 859.17125c-13.3375 0-24.1875-10.9125-24.1875-24.33125v-42.995h-8.47625c-13.3375 0-24.18625-10.8725-24.18625-24.2375v-49.60625c-0.03-31.34125 25.44875-57.0225 56.7975-57.24125 63.08875 0 171.69125-53.37875 171.69125-108.02375v-16.555c0-26.2125 0.00125-28.3975-37.5925-66.5525-38.43625-33.07625-60.41125-81.10625-60.295-131.82625-0.17375-46.03375 17.57875-89.45125 49.98375-122.21 31.56375-32.25625 75.58875-50.77125 120.76-50.77125h0.6075c45.17 0 89.19375 18.51625 120.78375 50.80125 32.21 32.61125 49.95625 76.0175 49.95625 122.19625 0.11875 50.70625-21.85625 98.7375-60.2925 131.8125-37.49375 38.01-37.49375 40.3-37.49375 61.86625 0 10.59875-0.05875 16.78375-0.085 19.75625-0.0075 0.55875-0.01125 1.12-0.01375 1.68 0.2225 54.53125 108.73125 107.83 171.58875 107.83 31.43 0.1825 56.9325 25.8625 56.8975 57.2475v49.5975a24.0725 24.0725 0 0 1-7.09875 17.13625 24.08625 24.08625 0 0 1-17.14 7.10125h-8.42625v42.995c0 13.41625-10.87125 24.33125-24.2375 24.33125H285.95v-0.00125z m465.4575-48.4675v-18.8575H310.1875v18.8575h441.22z m32.52-67.28125v-25.41875c0-4.835-3.7775-8.76625-8.4275-8.76625-40.59875 0-94.52125-16.57-137.37125-42.21125-53.2625-31.985-82.59125-72.57-82.59125-114.29l0.0025-0.6075c0.03375-1.5975 0.145-7.805 0.145-20.62875 0-38.03375 6.81875-50.67625 52.12125-96.63125l0.26375-0.2675 1.41125-1.16625c27.89875-23.72 43.94375-58.59125 43.94375-95.6125 0-68.7175-55.03125-124.62375-122.675-124.62375-67.64125 0-122.67 55.90625-122.67 124.62375-0.06875 36.89625 15.99625 71.76625 44.075 95.68l1.39875 1.265 0.13875 0.14c22.09875 22.3475 35.5275 37.26625 43.1975 52.08625 8.455 16.47875 9.12625 31.39875 9.12625 49.19125v16.5525c0 41.67625-29.3625 82.26375-82.67875 114.28375-42.8575 25.64625-96.78125 42.21375-137.385 42.21375-4.64625 0-8.4275 3.9325-8.4275 8.76875v25.41625l506.4025 0.0025z" fill="#8a8a8a" p-id="1864"></path><path d="M530.75 1024c-136.76125 0-265.335-53.25625-362.03875-149.96125C72.00625 777.3375 18.75 648.76125 18.75 512.0025c0-136.76125 53.25625-265.335 149.9625-362.0375C265.415 53.2575 393.98875 0 530.75 0c136.7575 0 265.33625 53.25625 362.03875 149.9625C989.49125 246.6675 1042.75 375.24 1042.75 512c0 136.7575-53.25625 265.335-149.9625 362.03875C796.08375 970.745 667.50875 1024 530.75 1024z m0-978.5125c-257.23625 0-466.5125 209.275-466.5125 466.51 0 257.23625 209.27625 466.5125 466.5125 466.5125 257.235 0 466.5125-209.27625 466.5125-466.5125C997.2625 254.76375 787.985 45.4875 530.75 45.4875z" fill="#8a8a8a" p-id="1865"></path></svg>