<?xml version="1.0" standalone="no"?><!DOCTYPE svg PUBLIC "-//W3C//DTD SVG 1.1//EN" "http://www.w3.org/Graphics/SVG/1.1/DTD/svg11.dtd"><svg t="1512037279651" class="icon" style="" viewBox="0 0 1024 1024" version="1.1" xmlns="http://www.w3.org/2000/svg" p-id="2649" xmlns:xlink="http://www.w3.org/1999/xlink" width="200" height="200"><defs><style type="text/css"></style></defs><path d="M512 46.545455C256 46.545455 46.545455 256 46.545455 512s209.454545 465.454545 465.454545 465.454545 465.454545-209.454545 465.454545-465.454545S768 46.545455 512 46.545455zM512 902.981818c-141.963636 0-265.309091-74.472727-332.8-186.181818l195.490909-155.927273 137.309091 114.036364 244.363636-207.127273 67.490909 44.218182 0-155.927273-176.872727 0 65.163636 53.527273-204.8 167.563636L372.363636 465.454545l-230.4 179.2c-13.963636-41.890909-23.272727-86.109091-23.272727-132.654545 0-216.436364 174.545455-390.981818 390.981818-390.981818 216.436364 0 390.981818 174.545455 390.981818 390.981818C902.981818 728.436364 728.436364 902.981818 512 902.981818z" fill="#8a8a8a" p-id="2650"></path></svg>