<?xml version="1.0" standalone="no"?><!DOCTYPE svg PUBLIC "-//W3C//DTD SVG 1.1//EN" "http://www.w3.org/Graphics/SVG/1.1/DTD/svg11.dtd"><svg t="1512091941270" class="icon" style="" viewBox="0 0 1024 1024" version="1.1" xmlns="http://www.w3.org/2000/svg" p-id="5317" xmlns:xlink="http://www.w3.org/1999/xlink" width="200" height="200"><defs><style type="text/css"></style></defs><path d="M323.584 303.616m-49.664 0a49.664 49.664 0 1 0 99.328 0 49.664 49.664 0 1 0-99.328 0Z" fill="#CC956F" p-id="5318"></path><path d="M706.048 303.616m-49.664 0a49.664 49.664 0 1 0 99.328 0 49.664 49.664 0 1 0-99.328 0Z" fill="#DCA682" p-id="5319"></path><path d="M497.152 482.304c-1.536 12.8 11.776 25.6 24.576 27.136 1.024 0 82.432 10.24 125.44 69.12 22.528 30.208 31.232 69.632 26.624 116.224 15.872 0.512 31.232 1.024 47.104 2.56 5.632-57.856-6.656-107.008-35.84-146.432-11.776-15.872-25.088-28.672-39.424-39.424-53.248-40.448-115.712-47.616-118.784-48.128-12.8-2.048-28.16 6.144-29.696 18.944z" fill="#EDB995" p-id="5320"></path><path d="M652.827409 708.779977a44.544 44.544 0 1 0 88.03071-13.684516 44.544 44.544 0 1 0-88.03071 13.684516Z" fill="#EDB995" p-id="5321"></path><path d="M532.48 482.304c1.536 12.8-5.632 25.6-18.432 27.136-1.024 0-88.064 10.24-131.584 69.12-22.528 30.208-31.232 69.632-26.624 116.224-15.872 0.512-31.232 1.024-47.104 2.56-5.632-57.856 6.656-107.008 35.84-146.432 11.776-15.872 25.088-28.672 39.424-39.424 53.248-40.448 115.712-47.616 118.784-48.128 12.8-2.048 28.672 6.144 29.696 18.944z" fill="#DCA682" p-id="5322"></path><path d="M325.901303 746.208664a44.544 44.544 0 1 0 13.684516-88.030709 44.544 44.544 0 1 0-13.684516 88.030709Z" fill="#DCA682" p-id="5323"></path><path d="M514.048 132.608c-1.024 0 1.024 0 0 0v353.28c1.024 0-1.024 0 0 0 109.056 0 202.24-78.848 202.24-176.64s-93.184-176.64-202.24-176.64z" fill="#EDB995" p-id="5324"></path><path d="M514.048 132.608c1.024 0-1.024 0 0 0v353.28c-1.024 0 1.024 0 0 0-109.056 0-200.704-78.848-200.704-176.64s91.648-176.64 200.704-176.64z" fill="#DCA682" p-id="5325"></path><path d="M514.048 327.68c-10.752 0.512-25.6 19.456-25.6 25.6 0 6.144 15.36 10.752 25.6 10.752V327.68z" fill="#E58585" p-id="5326"></path><path d="M514.048 327.68c10.752 0.512 27.136 19.456 27.136 25.6 0 6.144-16.896 10.752-27.136 10.752V327.68z" fill="#EF8B8B" p-id="5327"></path><path d="M576.512 364.544c-3.584-1.024-7.68 1.024-9.216 4.608-16.384 49.152-89.088 49.152-105.472 0-1.024-3.584-5.12-5.632-9.216-4.608-3.584 1.024-5.632 5.12-4.608 9.216 20.48 62.464 112.128 62.464 132.608 0 2.048-3.584 0-7.68-4.096-9.216z" fill="#2D170A" p-id="5328"></path><path d="M385.536 362.496m-34.816 0a34.816 34.816 0 1 0 69.632 0 34.816 34.816 0 1 0-69.632 0Z" fill="#EC6861" p-id="5329"></path><path d="M644.096 362.496m-34.816 0a34.816 34.816 0 1 0 69.632 0 34.816 34.816 0 1 0-69.632 0Z" fill="#EC6861" p-id="5330"></path><path d="M435.098525 353.262641a39.425577 39.425577 0 1 0 2.58544-78.808756 39.425577 39.425577 0 1 0-2.58544 78.808756Z" fill="#EAF2FA" p-id="5331"></path><path d="M436.736 312.832m-22.528 0a22.528 22.528 0 1 0 45.056 0 22.528 22.528 0 1 0-45.056 0Z" fill="#2D170A" p-id="5332"></path><path d="M423.576457 312.98102a11.264451 11.264451 0 1 0 0.738697-22.516787 11.264451 11.264451 0 1 0-0.738697 22.516787Z" fill="#EAF2FA" p-id="5333"></path><path d="M554.019872 315.159162a39.425577 39.425577 0 1 0 78.808575-2.590941 39.425577 39.425577 0 1 0-78.808575 2.590941Z" fill="#EAF2FA" p-id="5334"></path><path d="M593.408 312.832m-22.528 0a22.528 22.528 0 1 0 45.056 0 22.528 22.528 0 1 0-45.056 0Z" fill="#2D170A" p-id="5335"></path><path d="M561.68819 301.957761a11.264451 11.264451 0 1 0 22.516736-0.740269 11.264451 11.264451 0 1 0-22.516736 0.740269Z" fill="#EAF2FA" p-id="5336"></path><path d="M514.048 478.208h-36.864c-38.912 0-70.656 31.744-70.656 70.656l-23.552 202.24c0 38.912 31.744 61.952 70.656 61.952h60.416V478.208z" fill="#DCA682" p-id="5337"></path><path d="M514.048 478.208h40.96c38.912 0 68.096 31.744 68.096 70.656l23.552 202.24c0 38.912-31.744 61.952-70.656 61.952h-61.952V478.208z" fill="#EDB995" p-id="5338"></path><path d="M484.352 969.728l12.288-213.504c-1.024-12.8-51.2-9.728-64-8.704-12.8 1.024-22.528 12.288-21.504 25.088l24.064 207.36 28.16 7.68 20.992-17.92z" fill="#DCA682" p-id="5339"></path><path d="M458.752 978.432c-11.264 0.512-22.528-6.144-28.16-15.36l3.584 35.328c1.024 14.336 13.312 25.6 27.648 25.088 14.336-1.024 25.6-13.312 25.088-27.648l-2.56-34.816c-4.608 9.728-14.336 16.896-25.6 17.408z" fill="#EC7981" p-id="5340"></path><path d="M541.184 969.216l-7.68-213.504c1.024-12.8 51.2-9.216 64.512-7.68 12.8 1.024 22.528 12.8 21.504 25.6l-28.672 207.36-28.16 7.168-21.504-18.944z" fill="#EDB995" p-id="5341"></path><path d="M565.248 978.432c11.264 1.024 20.48-5.12 26.624-14.336l-2.56 34.816c-1.024 14.336-13.824 25.6-28.16 24.576-14.336-1.024-25.6-13.824-24.576-28.16l4.608-34.816c4.608 10.24 12.8 17.408 24.064 17.92z" fill="#EE8F9F" p-id="5342"></path><path d="M487.424 799.232c-6.656-1.024-13.312 1.536-17.408 6.144-3.072-5.632-8.192-9.728-15.36-10.752-6.144-1.024-12.288 1.536-16.384 5.12-3.072-5.12-8.192-8.704-14.336-9.728-10.752-1.536-20.992 6.144-22.528 16.896-1.536 10.752 6.144 20.992 16.896 22.528 6.144 1.024 12.288-1.536 16.384-5.12 3.072 5.12 8.192 8.704 14.336 9.728 6.656 1.024 13.312-1.536 17.408-6.144 3.072 5.632 8.192 9.728 15.36 10.752 10.752 1.536 20.992-6.144 22.528-16.896 1.536-11.264-6.144-21.504-16.896-22.528z" fill="#F3B8C5" p-id="5343"></path><path d="M542.72 799.232c6.656-1.024 13.312 1.536 17.408 6.144 3.072-5.632 8.192-9.728 15.36-10.752 6.144-1.024 12.288 1.536 16.384 5.12 3.072-5.12 8.192-8.704 14.336-9.728 10.752-1.536 20.992 6.144 22.528 16.896 1.536 10.752-6.144 20.992-16.896 22.528-6.144 1.024-12.288-1.536-16.384-5.12-3.072 5.12-8.192 8.704-14.336 9.728-6.656 1.024-13.312-1.536-17.408-6.144-3.072 5.632-8.192 9.728-15.36 10.752-10.752 1.536-20.992-6.144-22.528-16.896-2.048-11.264 5.632-21.504 16.896-22.528z" fill="#F7D5DD" p-id="5344"></path><path d="M387.072 692.736l-6.144 58.88c0 39.424 32.256 62.464 71.68 62.464h61.44v-121.856H387.072z" fill="#EC7981" p-id="5345"></path><path d="M514.048 692.736v121.856h62.976c39.424 0 71.68-23.04 71.68-62.464l-6.144-58.88h-128.512z" fill="#EE8F9F" p-id="5346"></path><path d="M249.856 138.24c1.536 0 2.56 0.512 2.048 1.536-29.184 8.192-58.368 25.088-87.04 2.048-12.8-10.24-14.848-31.232-2.048-42.496 10.752-9.216 27.136-7.168 40.448-6.656-23.04-10.752-47.104-53.76-16.896-71.68 10.24-5.632 31.232-4.096 41.472 0 10.752 4.096 18.944 11.776 26.112 20.48-2.56-22.016 21.504-42.496 41.984-34.816C318.976 15.872 317.44 38.912 317.44 59.904L249.856 138.24z" fill="#A35A35" p-id="5347"></path><path d="M779.776 138.24c-1.536 0-2.56 0.512-2.048 1.536 29.184 8.192 58.368 25.088 87.04 2.048 12.8-10.24 14.848-31.232 2.048-42.496-10.752-9.216-27.136-7.168-40.448-6.656 23.04-10.752 47.104-53.76 16.896-71.68-10.24-5.632-31.232-4.096-41.472 0-10.752 4.096-18.944 11.776-26.112 20.48 2.56-22.016-21.504-42.496-41.984-34.816-23.04 8.704-20.992 31.744-20.992 52.736L779.776 138.24z" fill="#C56C46" p-id="5348"></path><path d="M514.048 28.672c0-8.704-308.736 22.528-210.432 227.84 4.096 8.704 205.312-52.736 210.432-93.696 1.024-1.024-1.024-2.048 0-3.072V28.672z" fill="#A35A35" p-id="5349"></path><path d="M514.048 159.744c1.024 1.024-1.024 2.048 0 3.072 5.632 40.96 208.384 102.4 212.48 93.696C824.832 51.2 514.048 20.48 514.048 28.672v131.072z" fill="#C56C46" p-id="5350"></path><path d="M275.968 115.712l26.112 17.92s22.528 109.568-55.296 56.832C168.96 137.728 275.968 115.712 275.968 115.712z" fill="#EC7981" p-id="5351"></path><path d="M274.944 117.248l26.112 17.92s110.08-19.968 32.256-72.192C255.488 9.728 274.944 117.248 274.944 117.248z" fill="#EC7981" p-id="5352"></path><path d="M309.248 114.688c8.192 5.632 9.216 17.408 3.072 27.136-6.656 9.216-17.92 12.8-26.112 7.168l-16.896-11.264c-8.192-5.632-9.216-17.408-3.072-27.136 6.144-9.216 17.92-12.8 26.112-7.168l16.896 11.264z" fill="#F09EA8" p-id="5353"></path><path d="M754.176 115.712l-26.112 17.92s-22.528 109.568 55.296 56.832c77.824-52.736-29.184-74.752-29.184-74.752z" fill="#EC7981" p-id="5354"></path><path d="M755.2 117.248l-26.112 17.92s-110.08-19.968-32.256-72.192c77.312-53.248 58.368 54.272 58.368 54.272z" fill="#EC7981" p-id="5355"></path><path d="M720.384 114.688c-8.192 5.632-9.216 17.408-3.072 27.136 6.656 9.216 17.92 12.8 26.112 7.168l16.896-11.264c8.192-5.632 9.216-17.408 3.072-27.136-6.144-9.216-17.92-12.8-26.112-7.168l-16.896 11.264z" fill="#F09EA8" p-id="5356"></path><path d="M425.984 239.616c-10.24 4.608-20.992 8.192-31.232 13.312-7.68 3.584-1.024 14.848 6.656 11.264 10.24-5.12 20.48-8.704 31.232-13.312 7.68-3.072 1.024-14.336-6.656-11.264z" fill="#A35A35" p-id="5357"></path><path d="M604.16 239.616c10.24 4.608 20.992 8.192 31.232 13.312 7.68 3.584 1.024 14.848-6.656 11.264-10.24-5.12-20.48-8.704-31.232-13.312-7.68-3.072-1.024-14.336 6.656-11.264z" fill="#C56C46" p-id="5358"></path><path d="M434.688 478.208L414.72 488.96s11.776 39.936-12.8 68.608l-14.336 135.168h126.464v-156.672s-47.104 1.536-79.36-57.856z" fill="#E4E7ED" p-id="5359"></path><path d="M594.944 478.208l19.968 10.752s-11.776 39.936 12.8 68.608l14.336 135.168h-128v-156.672s48.64 1.536 80.896-57.856z" fill="#EDF1F7" p-id="5360"></path><path d="M468.992 576c-36.352 29.184 45.056 81.408 45.056 81.408v-57.856s-17.408-45.568-45.056-23.552z" fill="#EC7981" p-id="5361"></path><path d="M560.64 576c36.352 29.184-46.592 81.408-46.592 81.408v-57.856s18.944-45.568 46.592-23.552z" fill="#EE8F9F" p-id="5362"></path></svg>